<svg xmlns="http://www.w3.org/2000/svg" width="21" height="22" viewBox="0 0 21 22" fill="none">
  <path d="M3.31769 12.8237C4.04948 9.09561 7.1086 6.44669 10.5497 6.44669C13.9897 6.44669 17.0489 9.09561 17.7817 12.8237C17.8108 12.9716 17.894 13.1013 18.0131 13.1841C18.1322 13.2669 18.2775 13.2962 18.4169 13.2654C18.5564 13.2346 18.6786 13.1463 18.7567 13.0199C18.8347 12.8935 18.8623 12.7394 18.8333 12.5915C17.9995 8.35114 14.5123 5.30835 10.5497 5.30835C6.58712 5.30835 3.09988 8.35114 2.26616 12.5915C2.23713 12.7394 2.26468 12.8935 2.34276 13.0199C2.42084 13.1463 2.54304 13.2346 2.68248 13.2654C2.82192 13.2962 2.96718 13.2669 3.08631 13.1841C3.20544 13.1013 3.28867 12.9716 3.31769 12.8237ZM10.539 8.72338C11.535 8.72338 12.4902 9.14314 13.1945 9.89032C13.8988 10.6375 14.2945 11.6509 14.2945 12.7076C14.2945 13.7642 13.8988 14.7776 13.1945 15.5248C12.4902 16.272 11.535 16.6918 10.539 16.6918C9.54296 16.6918 8.58773 16.272 7.88344 15.5248C7.17915 14.7776 6.78348 13.7642 6.78348 12.7076C6.78348 11.6509 7.17915 10.6375 7.88344 9.89032C8.58773 9.14314 9.54296 8.72338 10.539 8.72338Z" fill="#C5C5C5"/>
</svg>